# xmcd
#
# Track frame offsets:
#	150
#	20540
#	38886
#	55452
#	74271
#	88638
#	109801
#	127047
#	146819
#	165269
#	183975
#
# Disc length: 2645 seconds
#
# Revision: 1
# Processed by: cddbd v1.5.1PL2 Copyright (c) Steve Scherf et al.
# Submitted via: EasyCDDAExtractor 7.1.2.1
#
DISCID=990a530b
DTITLE=Μιλτιάδης Πασχαλίδης - Η Μόνη Μου Πατρίδα Είναι Ο Χρόνος
DYEAR=2003
DGENRE=
TTITLE0=Η Μόνη Μου Πατρίδα Είναι Ο Χρόνος
TTITLE1=Σε Κλίμακα Μποφόρ
TTITLE2=Τεχνητή Αναπνοή
TTITLE3=Ένα Πεύκο Στην Ακρογιαλιά
TTITLE4=Στα Είπα Όλα
TTITLE5=Το Σαράκι Του Ρεμπώ
TTITLE6=Σβήνω Τα Ίχνη
TTITLE7=Οι Ντομάτες
TTITLE8=Βοριάς Φυσάει Τα Λόγια Μου
TTITLE9=’γγέλος Με Τους Αγγέλους
TTITLE10=Έτσι Σκληρά
EXTD=
EXTT0=
EXTT1=
EXTT2=
EXTT3=
EXTT4=
EXTT5=
EXTT6=
EXTT7=
EXTT8=
EXTT9=
EXTT10=
PLAYORDER=
